<svg viewBox="0 0 128 128" xmlns="http://www.w3.org/2000/svg" id="technology">
  <defs>
  <style>
    @media(prefers-color-scheme:dark){:root{--color-logo-shape:#000;--color-logo-base:#fff}}
    body[data-color-scheme="dark"]{--color-logo-shape:#000;--color-logo-base:#fff}
  </style>
  <path id="d" d="M6,47l58-47,58,47-58,45z" />
  <path id="s" d="M6,47v12l58,45v-12z" />
  <path id="h" d="m73.1,23.8c-.8,0-1.7.3-2.4.9l-9.1,7.3-3.9-3.1c-.7-.6-1.9-.6-2.6,0l-12.3,9.7c-.7.6-.8,1.5-.1,2.1l3.9,3.1-9.6,7.6c-1.6,1.2-1.8,2.6-.6,3.5l2.3,1.8,38.7-30.6-2.1-1.7c-.5-.5-1.3-.7-2.2-.6zm6.2,3.8-38.8,30.7,16.5,13.2c1,.8,2.3.9,3.5-.1l35.2-27.9c1.3-1,.8-2.1.1-2.7zm-22.9,4.4,2.5,2-9.7,7.7-2.6-2zm12.8,11.1.7,4.4,4.2-3.5c1.9-1.5,4.1.5,2.2,2.1l-4.2,3.5,4.9.9c2.2.4.8,3.5-1.3,3.1l-4.9-.9.7,4.4c.2,2.1-3.3,2.9-3.6,1l-.7-4.4-4.2,3.5c-1.9,1.5-4.1-.6-2.2-2.1l4.2-3.5-4.9-.9c-2.2-.4-.8-3.6,1.3-3.1l4.9.9-.7-4.4c-.3-2,3.3-3,3.6-1z" />
  </defs>
  <use href="#s" fill="#9ee0ff"/>
  <use href="#s" fill="#6bd0ff" y="12"/>
  <use href="#s" fill="#38c0ff" y="24"/>
  <g transform="matrix(-1 0 0 1 128 0)">
    <use href="#s" fill="#f29eff"/>
    <use href="#s" fill="#eb6bff" y="12"/>
    <use href="#s" fill="#e438ff" y="24"/>
  </g>
  <use href="#d" style="fill:var(--color-logo-base,#000)"/>
  <use href="#h" style="fill:var(--color-logo-shape,#fff)"/>
</svg>
